<svg xmlns="http://www.w3.org/2000/svg" viewBox="0 0 61.754 11.686" height="44.168" width="233.401" xmlns:v="https://vecta.io/nano"><g fill="#11002b"><path d="M3.32 7.037v-.93h.93v-.93H2.39v1.86zm0-3.72v-.93h-.93v.93zM.53 11.686V.53h7.438v.93h-.93v.93h-.93v.93h2.79v.93h-.93v.93h-.93v.93h-.93v.93h-.93v.93h-.93v.93h-.93v.93h-.93v.93h-.93v.93z"/><path d="M8.897 7.967V.53h1.86v5.578h5.578v1.86zm8.368 0V.53h.93v.93h.93v.93h.93v.93h.93v.93h.93v.93h.93v.93h.93v.93h.93v.93h-2.8v-.93h-.93V6.1h-.93v-.93h-.93v2.8zm8.367 0v-1.86H31.2v-.93h-5.578V.53h7.438V2.4H27.5v.93h5.578v4.648zm11.156 0V2.4H34V.53h7.438V2.4h-2.8v5.578zm5.58 0v-1.86h7.438v1.86zm0-2.8V3.32h7.438v1.86zm0-2.8V.53h7.438V2.4zm14.875 7.44v-.93h-.93v-.93h-.93v-.93h-.93v-.93h-.93v-.93h-.93v2.8h-1.86V3.32H56.3V2.4h-5.578V.53h7.438v4.648H56.3v.93h.93v.93h.93v2.8z"/></g><g fill="#60f"><path d="M2.79 6.508v-.93h.93v-.93H1.86v1.86zm0-3.72v-.93h-.93v.93zM0 11.157V0h7.438v.93h-.93v.93h-.93v.93h2.79v.93h-.93v.93h-.93v.93h-.93v.93h-.93v.93h-.93v.93h-.93v.93h-.93v.93H.93v.93z"/><path d="M8.367 7.438V0h1.86v5.58h5.578v1.86zm8.368 0V0h.93v.93h.93v.93h.93v.93h.93v.93h.93v.93h.93v.93h.93v.93h.93v.93h-2.8V6.5h-.93v-.93h-.93v-.93h-.93v2.8zm8.367 0V5.58h5.578v-.93h-5.578V0h7.438v1.86h-5.58v.93h5.578v4.648zm11.156 0V1.86h-2.8V0h7.438v1.86h-2.8v5.578zm5.58 0V5.58h7.438v1.86zm0-2.8V2.8h7.438v1.86zm0-2.8V0h7.438v1.86zm14.875 7.44v-.93h-.93v-.93h-.93v-.93h-.93v-.93h-.93v-.93h-.93v2.8h-1.86V2.8h5.578v-.93h-5.578V0h7.438v4.65h-1.86v.93h.93v.93h.93v2.8z"/></g><path d="M58.7 2.03V.875h.436V.5h.436v1.922h-.436V2.03zm.873.384h1.3v.384h-1.3zm0-1.922V.107h1.3V.5zm1.3 1.922V2.03h.436v.384zm0-1.538V.5h.436v.384zm.436 1.153V.875h.436V2.03zm-1.576-.335h.16v-.16h.16v-.16h-.16V1.2h-.16V.887h.97V1.2H60.4v-.16h-.323v.16h.16v.16h.16v.16h-.16v.16h-.16v.16h.323v-.16h.323v.323h-.97z" fill="#11002b"/><path d="M58.593 1.922V.77h.436V.385h.436v1.922h-.436v-.384zm.873.384h1.3V2.7h-1.3zm0-1.922V0h1.3v.384zm1.3 1.922v-.384h.436v.384zm0-1.538V.385h.436V.77zm.436 1.153V.77h.436v1.153zm-1.576-.333h.16v-.16h.16v-.16h-.16v-.16h-.16V.78h.97v.323h-.323v-.16h-.323v.16h.16v.16h.16v.16h-.16v.16h-.16v.16h.323v-.16h.323v.323h-.97z" fill="#60f"/></svg>